<?xml version="1.0" encoding="iso-8859-1"?>
<!-- Generator: Adobe Illustrator 19.0.0, SVG Export Plug-In . SVG Version: 6.00 Build 0)  -->
<svg xmlns="http://www.w3.org/2000/svg" xmlns:xlink="http://www.w3.org/1999/xlink" version="1.1" id="Layer_1" x="0px" y="0px" viewBox="0 0 492.506 492.506" style="enable-background:new 0 0 492.506 492.506;" xml:space="preserve" width="512" height="512">
<g>
	<path style="fill:#3E5468;" d="M103.74,421.445c-1.042,0-2.101-0.218-3.11-0.679c-3.768-1.72-5.428-6.169-3.707-9.938   c6.277-13.75,9.249-26.249,8.833-36.859c-12.662,11.572-26.764,21.217-40.705,27.746c-19.124,8.955-36.133,11.023-47.892,5.825   c-16.695-7.381-17.792-25.89-16.96-36.267c1.049-13.128,7.112-24.693,17.533-33.441c9.022-7.573,21.176-12.745,34.224-14.563   c13.443-1.873,27.089-0.127,38.419,4.917c9.1,4.05,16.407,10.008,21.58,17.517c5.379-6.574,10.019-13.366,13.85-20.283   c2.007-3.624,6.572-4.935,10.194-2.926c3.624,2.007,4.934,6.571,2.927,10.195c-5.354,9.665-12.091,19.071-20.062,28.016   c4.335,15.851,1.554,34.78-8.297,56.355C109.308,419.816,106.586,421.445,103.74,421.445z M63.169,337.473   c-2.912,0-5.961,0.209-9.145,0.652c-16.854,2.349-37.148,12.752-38.874,34.345c-0.914,11.396,1.802,18.578,8.073,21.35   c7.623,3.37,20.549,1.295,35.464-5.69c14.766-6.915,29.799-17.764,42.766-30.811C95.46,346.477,82.279,337.473,63.169,337.473z"/>
	<g>
		<path style="fill:#91CDF2;" d="M96.928,50.759c-1.919,0-3.839-0.732-5.304-2.197c-2.929-2.929-2.929-7.678,0-10.606l18.26-18.26    c2.93-2.929,7.678-2.929,10.607,0c2.929,2.929,2.929,7.678,0,10.606l-18.26,18.26C100.767,50.027,98.847,50.759,96.928,50.759z"/>
		<path style="fill:#91CDF2;" d="M51.253,96.435c-1.919,0-3.839-0.732-5.304-2.197c-2.929-2.929-2.929-7.678,0-10.606l18.26-18.26    c2.93-2.929,7.678-2.929,10.607,0c2.929,2.929,2.929,7.678,0,10.606l-18.26,18.26C55.092,95.702,53.172,96.435,51.253,96.435z"/>
		<path style="fill:#91CDF2;" d="M115.188,96.435c-1.919,0-3.839-0.732-5.304-2.197l-18.26-18.26c-2.929-2.929-2.929-7.678,0-10.606    c2.93-2.929,7.678-2.929,10.607,0l18.26,18.26c2.929,2.929,2.929,7.678,0,10.606C119.026,95.702,117.107,96.435,115.188,96.435z"/>
		<path style="fill:#91CDF2;" d="M69.513,50.759c-1.919,0-3.839-0.732-5.304-2.197l-18.26-18.26c-2.929-2.929-2.929-7.678,0-10.606    c2.93-2.929,7.678-2.929,10.607,0l18.26,18.26c2.929,2.929,2.929,7.678,0,10.606C73.352,50.027,71.432,50.759,69.513,50.759z"/>
	</g>
	<g>
		<path style="fill:#5CC67A;" d="M441.021,356.593c-1.919,0-3.839-0.732-5.304-2.197c-2.929-2.929-2.929-7.678,0-10.606l18.26-18.26    c2.93-2.929,7.678-2.929,10.607,0c2.929,2.929,2.929,7.678,0,10.606l-18.26,18.26C444.859,355.861,442.94,356.593,441.021,356.593    z"/>
		<path style="fill:#5CC67A;" d="M395.345,402.269c-1.919,0-3.839-0.732-5.304-2.197c-2.929-2.929-2.929-7.678,0-10.606l18.26-18.26    c2.93-2.929,7.678-2.929,10.607,0c2.929,2.929,2.929,7.678,0,10.606l-18.26,18.26    C399.184,401.536,397.264,402.269,395.345,402.269z"/>
		<path style="fill:#5CC67A;" d="M459.28,402.269c-1.919,0-3.839-0.732-5.304-2.197l-18.26-18.26c-2.929-2.929-2.929-7.678,0-10.606    c2.93-2.929,7.678-2.929,10.607,0l18.26,18.26c2.929,2.929,2.929,7.678,0,10.606C463.119,401.536,461.199,402.269,459.28,402.269z    "/>
		<path style="fill:#5CC67A;" d="M413.605,356.593c-1.919,0-3.839-0.732-5.304-2.197l-18.26-18.26    c-2.929-2.929-2.929-7.678,0-10.606c2.93-2.929,7.678-2.929,10.607,0l18.26,18.26c2.929,2.929,2.929,7.678,0,10.606    C417.443,355.861,415.524,356.593,413.605,356.593z"/>
	</g>
	<g>
		<path style="fill:#FFE257;" d="M92.624,443.086c-1.919,0-3.839-0.732-5.304-2.197l-18.937-18.936    c-2.929-2.929-2.929-7.677,0-10.606c2.93-2.929,7.678-2.929,10.607,0l18.937,18.936c2.929,2.929,2.929,7.678,0,10.606    C96.463,442.353,94.543,443.086,92.624,443.086z"/>
		<path style="fill:#FFE257;" d="M139.991,490.453c-1.919,0-3.839-0.732-5.304-2.197l-18.937-18.936    c-2.929-2.929-2.929-7.677,0-10.606c2.93-2.929,7.678-2.929,10.607,0l18.937,18.936c2.929,2.929,2.929,7.678,0,10.606    C143.83,489.72,141.91,490.453,139.991,490.453z"/>
		<path style="fill:#FFE257;" d="M121.055,443.086c-1.92,0-3.839-0.732-5.304-2.197c-2.929-2.929-2.929-7.678,0-10.606    l18.937-18.936c2.931-2.929,7.679-2.929,10.607,0s2.929,7.678,0,10.606l-18.937,18.936    C124.894,442.353,122.974,443.086,121.055,443.086z"/>
		<path style="fill:#FFE257;" d="M73.688,490.453c-1.92,0-3.839-0.732-5.304-2.197c-2.929-2.929-2.929-7.678,0-10.606l18.937-18.936    c2.931-2.93,7.679-2.929,10.607,0c2.929,2.929,2.929,7.678,0,10.606l-18.937,18.936C77.526,489.72,75.607,490.453,73.688,490.453z    "/>
	</g>
	<path style="fill:#E6E6E6;" d="M420.156,212.572c-8.8,10.54-17.72,20.95-26.77,31.24c-53.64,60.99-111.71,117.56-174.19,169.72   c-55.09-37.67-101.47-84.06-139.15-139.15c52.2-62.52,108.82-120.62,169.86-174.3c10.24-9.01,20.61-17.9,31.11-26.66   C336.106,111.092,382.486,157.482,420.156,212.572z"/>
	<path style="fill:#CCCCCC;" d="M333.059,113.883c-77.16,64.55-148.01,135.4-212.54,212.55c-14.46-16.39-27.95-33.74-40.47-52.05   c60.96-73.01,127.95-140,200.97-200.96C299.329,85.943,316.679,99.423,333.059,113.883z"/>
	<path style="fill:#FF4D4D;" d="M390.684,246.853c-25.78,29.16-52.57,57.31-80.39,84.44c-51.03-3.05-106.17-26.34-148.11-52.82   c-21.09-13.31-38.84-27.43-51.06-40.18c26.08-29.44,53.23-57.83,81.4-85.19c9.69,12.79,27.33,28.13,49.53,42.66   C283.184,222.694,339.954,246.843,390.684,246.853z"/>
	<path style="fill:#EA365D;" d="M242.054,195.764c-27.55,26.64-54.18,54.22-79.87,82.71c-21.09-13.31-38.84-27.43-51.06-40.18   c26.08-29.44,53.23-57.83,81.4-85.19C202.214,165.893,219.854,181.233,242.054,195.764z"/>
	<path style="fill:#CCCCCC;" d="M420.156,212.572c-8.8,10.54-17.72,20.95-26.77,31.24c-0.14-0.1-0.27-0.21-0.4-0.32   c-51.63-42.64-99.27-90.29-141.92-141.92c-0.41-0.49-0.79-0.99-1.16-1.49c10.24-9.01,20.61-17.9,31.11-26.66   C336.106,111.092,382.486,157.482,420.156,212.572z"/>
	<path style="fill:#FF4D4D;" d="M450.668,2.617L284.086,32.213c-26.791,4.76-38.616,36.653-21.288,57.633   c42.642,51.629,90.286,99.273,141.915,141.915c20.98,17.328,52.873,5.504,57.633-21.288l29.596-166.582   C496.271,19.527,475.032-1.712,450.668,2.617z"/>
	<path style="fill:#EA365D;" d="M482.064,12.496c-3.33-3.33-10.402-2.92-20.011,2.433L330.56,88.072   c-16.61,9.242-31.608,27.931-34.245,40.397c-11.49-12.608-22.67-25.484-33.517-38.622c-17.331-20.98-5.501-52.877,21.291-57.636   L450.662,2.618C462.845,0.461,474.251,4.683,482.064,12.496z"/>
</g>















</svg>
