<?xml version="1.0" encoding="iso-8859-1"?>
<!-- Generator: Adobe Illustrator 19.0.0, SVG Export Plug-In . SVG Version: 6.00 Build 0)  -->
<svg xmlns="http://www.w3.org/2000/svg" xmlns:xlink="http://www.w3.org/1999/xlink" version="1.1" id="Layer_1" x="0px" y="0px" viewBox="0 0 512 512" style="enable-background:new 0 0 512 512;" xml:space="preserve" width="512" height="512">
<g>
	<g>
		<path style="fill:#C6715A;" d="M26.32,294.97c-35.093-35.093-35.093-92.186,0-127.279l63.64-63.64l21.213,21.213l-63.64,63.64    c-23.399,23.399-23.399,61.454,0,84.853s61.454,23.399,84.853,0l10.607-10.607l21.213,21.213l-10.607,10.607    C118.506,330.063,61.413,330.063,26.32,294.97z"/>
	</g>
	<g>
		<path style="fill:#C6715A;" d="M199.955,291.123L43.008,448.07l63.64,63.64l156.947-156.947L199.955,291.123z"/>
	</g>
	
		<rect x="47.626" y="369.22" transform="matrix(0.7071 -0.7071 0.7071 0.7071 -241.1404 231.2756)" style="fill:#B35F49;" width="221.957" height="75"/>
	<polygon style="fill:#FF3980;" points="330.204,330.58 263.594,397.189 115.102,248.697 132.284,231.514 192.529,228.12    253.625,258.667 274.413,269.273  "/>
	<polygon style="fill:#F30051;" points="274.413,269.273 330.204,330.58 263.594,397.189 189.348,322.943 253.625,258.667  "/>
	<polygon style="fill:#FFF5F5;" points="393.844,266.94 330.204,330.58 231.139,281.152 132.284,231.514 195.924,167.875    261.26,167.025 317.264,195.027 355.023,214.118  "/>
	<polygon style="fill:#EFE2DD;" points="355.023,214.118 393.844,266.94 330.204,330.58 231.139,281.152 317.264,195.027  "/>
	<polygon style="fill:#FF3980;" points="457.483,203.3 393.844,266.94 294.778,217.513 195.924,167.875 259.564,104.235    310.899,96.597 380.691,131.6 422.056,152.176  "/>
	<polygon style="fill:#F30051;" points="422.056,152.176 457.483,203.3 393.844,266.94 294.778,217.513 380.691,131.6  "/>
	<g>
		<g>
			<path style="fill:#FFF5F5;" d="M348.447,15.352l-88.883,88.883l98.854,49.638l99.065,49.427l39.456-39.456L348.447,15.352z"/>
		</g>
	</g>
	<polygon style="fill:#EFE2DD;" points="496.939,163.844 457.483,203.3 358.418,153.873 422.693,89.598  "/>
	<g>
		<path style="fill:#FF6498;" d="M511.789,0.502L290.959,0.29L512,221.331L511.789,0.502z"/>
	</g>
	<polygon style="fill:#FF3980;" points="512,221.331 401.48,110.811 511.789,0.502  "/>
	<g>
		
			<rect x="137.159" y="40.627" transform="matrix(0.7071 0.7071 -0.7071 0.7071 89.2037 -89.1032)" style="fill:#FDBF00;" width="30" height="45"/>
	</g>
	<g>
		<g>
			<g>
				<polygon style="fill:#FDBF00;" points="92.776,75.152 81.134,31.69 110.116,23.922 121.758,67.384     "/>
			</g>
		</g>
	</g>
	<g>
		<g>
			<g>
				<polygon style="fill:#FDBF00;" points="119.956,176.578 108.313,133.116 137.295,125.347 148.938,168.81     "/>
			</g>
		</g>
	</g>
	<g>
		<g>
			<g>
				<polygon style="fill:#FDBF00;" points="38.708,95.33 46.476,66.348 89.938,77.991 82.17,106.972     "/>
			</g>
		</g>
	</g>
	<g>
		<g>
			<g>
				<polygon style="fill:#FDBF00;" points="140.133,122.509 147.902,93.528 191.364,105.17 183.595,134.152     "/>
			</g>
		</g>
	</g>
	<g>
		<g>
			<g>
				<g>
					<path style="fill:#FED966;" d="M83.216,132.07c-17.546-17.546-17.546-46.093,0-63.64s46.093-17.546,63.64,0       s17.546,46.093,0,63.64S100.762,149.616,83.216,132.07z"/>
				</g>
			</g>
		</g>
	</g>
</g>















</svg>
