<svg height="512pt" viewBox="0 0 512 512" width="512pt" xmlns="http://www.w3.org/2000/svg"><path d="m0 256c0-141.386719 114.613281-256 256-256s256 114.613281 256 256c0 89.542969-45.972656 168.347656-115.601562 214.101562-20.582032 13.523438-48.425782 6.226563-72.5625 13.398438-19.375 5.757812-34.511719 27.214844-55.503907 28.207031-4.085937.195313-8.199219.292969-12.332031.292969s-8.242188-.097656-12.328125-.292969c-22.28125-1.054687-46.242187-24.476562-66.671875-30.875-22.816406-7.140625-41.832031 2.125-61.40625-10.738281-69.625-45.75-115.59375-124.554688-115.59375-214.09375zm0 0" fill="#005fd2"/><path d="m512 256c0-9.136719-.488281-18.160156-1.421875-27.054688l-110.75-110.402343c-3.105469-3.925781-7.90625-6.453125-13.296875-6.453125h-.332031c-2.847657 0-5.535157.714844-7.894531 1.957031l-16.820313-16.761719c-3.089844-4.222656-8.070313-6.976562-13.695313-6.976562h-.328124c-9.371094 0-17 7.621094-17 16.992187v26.65625l-8.078126-8.089843c-2.457031-2.867188-5.851562-4.90625-9.710937-5.632813l-56.671875-57.734375s-23.246094 26.351562-44.839844 59.640625c-2.46875-1.402344-5.3125-2.210937-8.351562-2.210937h-.328125c-.820313 0-1.621094.078124-2.414063.191406l-22.378906-23.554688c-3.113281-3.8125-7.847656-6.257812-13.148438-6.257812h-.328124c-9.371094 0-16.992188 7.621094-16.992188 16.992187v19.246094l-9.519531-9.5625c-3.0625-3.023437-7.261719-4.894531-11.898438-4.894531h-.332031c-9.367188 0-16.988281 7.621094-16.988281 16.988281v121.644531l-12-12.292968c-3.550781-4.109376-8.511719-6.589844-13.949219-6.992188-5.460938-.398438-10.710938 1.339844-14.832031 4.882812-8.507813 7.359376-9.449219 20.269532-2.097657 28.777344l49.089844 56.8125c.289063.417969.597656.839844.910156 1.25v146.914063c.410157.273437.820313.546875 1.234376.816406.851562.550781 1.710937 1.101563 2.570312 1.644531.785156.496094 1.574219.988282 2.367188 1.476563.996093.613281 1.996093 1.222656 3.003906 1.824219 16.433594 9.832031 33.671875-.988282 52.222656 4.996093 21.035156 6.785157 43.648438 29.78125 66.671875 30.875 4.085937.195313 8.195313.292969 12.328125.292969 4.136719 0 8.246094-.097656 12.332031-.292969 23.855469-1.132812 33.792969-20.984375 55.503907-28.207031 21.199218-7.058594 54.234374-1.355469 72.566406-13.402344 69.625-45.75 115.597656-124.554687 115.597656-214.097656zm0 0" fill="#00459f"/><path d="m252.328125 167.039062v135.0625c0 8.429688-3.066406 16.558594-8.65625 22.949219v186.660157c-47.152344-2.242188-90.972656-17.242188-128.070313-41.609376v-146.941406c-.3125-.410156-.621093-.832031-.910156-1.25l-49.089844-56.808594c-7.351562-8.511718-6.410156-21.421874 2.097657-28.78125 4.121093-3.539062 9.371093-5.28125 14.832031-4.878906 5.4375.398438 10.398438 2.878906 13.949219 6.988282l12 13.890624v-123.242187c0-9.367187 7.621093-16.988281 16.988281-16.988281h.332031c9.371094 0 16.988281 7.621094 16.988281 16.988281v99.601563c0 1.089843.890626 1.992187 1.980469 1.992187h.46875c1.089844 0 1.980469-.902344 1.980469-1.992187v-121.378907c0-9.371093 7.621094-16.992187 16.992188-16.992187h.328124c9.371094 0 17 7.621094 17 16.992187v121.378907c0 1.089843.882813 1.992187 1.972657 1.992187 1.089843 0 1.988281-.902344 1.988281-1.992187v-91.757813c0-9.371094 7.609375-16.992187 16.980469-16.992187h.328125c9.371094 0 16.992187 7.621093 16.992187 16.992187v91.757813c0 1.089843.890625 1.992187 1.980469 1.992187 1.097656 0 1.980469-.902344 1.980469-1.992187v-61.640626c0-7.878906 6.410156-14.289062 14.289062-14.289062 7.871094 0 14.277344 6.410156 14.277344 14.289062zm0 0" fill="#ffdba9"/><path d="m252.328125 167.039062v135.0625c0 8.429688-3.066406 16.558594-8.648437 22.949219v186.660157h-.007813c-24.660156-1.171876-48.402344-5.832032-70.75-13.511719v-405.679688c5.148437 2.929688 8.617187 8.460938 8.617187 14.78125v121.378907c0 1.089843.882813 1.992187 1.972657 1.992187 1.097656 0 1.988281-.902344 1.988281-1.992187v-91.757813c0-9.371094 7.621094-16.992187 16.980469-16.992187h.328125c9.371094 0 16.992187 7.621093 16.992187 16.992187v91.757813c0 1.089843.890625 1.992187 1.988281 1.992187 1.089844 0 1.972657-.902344 1.972657-1.992187v-61.640626c0-7.878906 6.410156-14.289062 14.296875-14.289062 7.863281 0 14.269531 6.410156 14.269531 14.289062zm0 0" fill="#ffc473"/><path d="m446.398438 265.101562-49.089844 56.808594c-.289063.417969-.597656.839844-.910156 1.25v146.941406c-37.097657 24.367188-80.917969 39.367188-128.070313 41.609376v-186.660157c-5.589844-6.390625-8.65625-14.519531-8.65625-22.949219v-135.0625c0-7.878906 6.40625-14.289062 14.277344-14.289062 7.878906 0 14.289062 6.410156 14.289062 14.289062v61.640626c0 1.089843.882813 1.992187 1.980469 1.992187 1.089844 0 1.980469-.902344 1.980469-1.992187v-91.757813c0-9.371094 7.621093-16.992187 16.992187-16.992187h.328125c9.371094 0 16.980469 7.621093 16.980469 16.992187v91.757813c0 1.089843.898438 1.992187 1.988281 1.992187 1.089844 0 1.972657-.902344 1.972657-1.992187v-121.378907c0-9.371093 7.628906-16.992187 17-16.992187h.328124c9.371094 0 16.992188 7.621094 16.992188 16.992187v121.378907c0 1.089843.890625 1.992187 1.980469 1.992187h.46875c1.089843 0 1.980469-.902344 1.980469-1.992187v-99.601563c0-9.367187 7.617187-16.988281 16.988281-16.988281h.332031c9.367188 0 16.988281 7.621094 16.988281 16.988281v123.242187l12-13.890624c3.550781-4.109376 8.511719-6.589844 13.949219-6.988282 5.460938-.402344 10.710938 1.339844 14.832031 4.878906 8.507813 7.359376 9.449219 20.269532 2.097657 28.78125zm0 0" fill="#ffdba9"/><path d="m339.078125 92.519531v405.679688c-22.347656 7.679687-46.089844 12.339843-70.75 13.511719h-.007813v-186.660157c-5.582031-6.390625-8.648437-14.519531-8.648437-22.949219v-135.0625c0-7.878906 6.40625-14.289062 14.269531-14.289062 7.886719 0 14.296875 6.410156 14.296875 14.289062v61.640626c0 1.089843.882813 1.992187 1.972657 1.992187 1.097656 0 1.988281-.902344 1.988281-1.992187v-91.757813c0-9.371094 7.621093-16.992187 16.992187-16.992187h.328125c9.359375 0 16.980469 7.621093 16.980469 16.992187v91.757813c0 1.089843.890625 1.992187 1.988281 1.992187 1.089844 0 1.972657-.902344 1.972657-1.992187v-121.378907c0-6.320312 3.46875-11.851562 8.617187-14.78125zm0 0" fill="#ffc473"/><path d="m256 62.5s-81.035156 91.839844-81.035156 149.238281c0 57.402344 26.335937 81.035157 81.035156 103.320313 54.699219-22.285156 81.035156-45.921875 81.035156-103.320313 0-57.398437-81.035156-149.238281-81.035156-149.238281zm0 0" fill="#00ffea"/><path d="m337.035156 211.742188c0 53.046874-22.507812 77.265624-69.117187 98.238281-3.816407 1.710937-7.777344 3.40625-11.917969 5.082031v-252.558594s81.035156 91.832032 81.035156 149.238282zm0 0" fill="#00dfc1"/><path d="m299.773438 225.015625-35.40625 24.59375-2.304688-39.292969.449219.46875 33.546875-44.011718-35.121094 24.394531-4.9375-84.097657-4.9375 84.097657-35.121094-24.394531 33.546875 44.011718.449219-.46875-2.304688 39.292969-35.40625-24.59375 34.3125 43.214844-5.5625 94.773437h30.046876l-5.5625-94.773437zm0 0" fill="#00ceb4"/><path d="m267.917969 309.984375 3.105469 53.015625h-15.023438v-255.933594l4.933594 84.097656 35.121094-24.394531-33.542969 44.015625-.457031-.472656 2.3125 39.300781 35.398437-24.597656-34.308594 43.21875zm0 0" fill="#008878"/></svg>